# xmcd
#
# Track frame offsets: 
#        150
#        19583
#        40165
#        65110
#
# Disc length: 1146 seconds
#
# Revision: 1
# Processed by: cddbd v1.5.2PL0 Copyright (c) Steve Scherf et al.
# Submitted via: ExactAudioCopy v1.0b3
#
DISCID=2e047804
DTITLE=Various Artist - SUPER EUROBEAT VOL.90 DISC-3 [SPECIAL TRAX]
DYEAR=1998
DGENRE=Eurobeat
TTITLE0=DOMINO - FEEL MY HEART
TTITLE1=CHERRY - DEAR MY FRIEND
TTITLE2=HELENA - FUTURE WORLD
TTITLE3=DAVE RODGERS - GO TO THE TOP
EXTD=
EXTT0=
EXTT1=
EXTT2=
EXTT3=
PLAYORDER=
